<?xml version="1.0" encoding="UTF-8"?>
<svg id="Livello_1" xmlns="http://www.w3.org/2000/svg" baseProfile="tiny" version="1.2" viewBox="0 0 191.35 191.35">
  <!-- Generator: Adobe Illustrator 30.3.0, SVG Export Plug-In . SVG Version: 2.1.3 Build 182)  -->
  <path d="M95.6,53.06c1.78-3.2,29.61-34.93,57.05-18.99-12.86-17.28-33.44-28.47-56.64-28.47s-42.21,10.36-55.14,26.53c26.16-12.14,53.01,17.81,54.73,20.92" fill="#d42b2b"/>
  <path d="M95.71,162.36v.04s-.04.02-.11,0c-.07.02-.11.02-.11,0v-.04c-2.6-1.12-31.13-18.81-53.08-42.54,20.88,33.19,53.59,65.9,53.59,65.9,0,.91,33.85-33.3,54.67-67.37-22.2,24.46-52.3,42.86-54.97,44" fill="#d42b2b"/>
  <path d="M146.17,115.26c24.73-27.24,28.7-50.32,11.78-68.58-2.89-3.12-5.94-5.62-9.08-7.45-9.9-5.76-21.04-5.06-33.1,2.07-9.45,5.59-16.33,13.46-17.23,14.96-.59,1.07-1.72,1.73-2.94,1.73s-2.35-.67-2.94-1.75c-1.65-2.71-18.5-21.2-37.13-21.2-3.71,0-7.49.73-11.24,2.47-3.82,1.77-7.48,4.54-10.88,8.22-17.3,18.73-12.79,42.58,13.43,70.92,19.16,20.71,42.95,36.08,48.77,39.5,6.05-3.5,31.23-19.6,50.56-40.89Z" fill="#eaa4a4"/>
</svg>