<?xml version="1.0" encoding="UTF-8"?>
<svg id="Livello_1" xmlns="http://www.w3.org/2000/svg" baseProfile="tiny" version="1.2" viewBox="0 0 1088.1 190.14">
  <!-- Generator: Adobe Illustrator 30.3.0, SVG Export Plug-In . SVG Version: 2.1.3 Build 182)  -->
  <path d="M453.98,52.46c1.78-3.2,29.61-34.93,57.05-18.99-12.86-17.28-33.44-28.47-56.64-28.47s-42.21,10.36-55.14,26.53c26.16-12.14,53.01,17.81,54.73,20.92" fill="#d42b2b"/>
  <path d="M454.08,161.76v.04s-.04.02-.11,0c-.07.02-.11.02-.11,0v-.04c-2.6-1.12-31.13-18.81-53.08-42.54,20.88,33.19,53.59,65.9,53.59,65.9,0,.91,33.85-33.3,54.67-67.37-22.2,24.46-52.3,42.86-54.97,44" fill="#d42b2b"/>
  <path d="M504.55,114.66c24.73-27.24,28.7-50.32,11.78-68.58-2.89-3.12-5.94-5.62-9.08-7.45-9.9-5.76-21.04-5.06-33.1,2.07-9.45,5.59-16.33,13.46-17.23,14.96-.59,1.07-1.72,1.73-2.94,1.73s-2.35-.67-2.94-1.75c-1.65-2.71-18.5-21.2-37.13-21.2-3.71,0-7.49.73-11.24,2.47-3.82,1.77-7.48,4.54-10.88,8.22-17.3,18.73-12.79,42.58,13.43,70.92,19.16,20.71,42.95,36.08,48.77,39.5,6.05-3.5,31.23-19.6,50.56-40.89Z" fill="#eaa4a4"/>
  <path d="M111.81,53.99c-4.58-7.05-11.08-12.47-19.49-16.24-8.42-3.77-18.44-5.66-30.07-5.66H6v129.94h30.26v-35.83h25.99c11.63,0,21.65-1.92,30.07-5.75,8.41-3.83,14.91-9.25,19.49-16.24,4.58-6.99,6.87-15.38,6.87-25.15s-2.29-18.01-6.87-25.06M81.37,95.75c-4.7,3.96-11.63,5.94-20.79,5.94h-24.32v-45.11h24.32c9.16,0,16.09,1.95,20.79,5.85,4.7,3.9,7.05,9.44,7.05,16.61s-2.35,12.75-7.05,16.71" fill="#b01e27"/>
  <path d="M204.99,164.25c-10.27,0-19.74-1.67-28.4-5.01-8.66-3.34-16.21-8.04-22.65-14.11-6.44-6.06-11.42-13.18-14.94-21.35-3.53-8.17-5.29-17.08-5.29-26.73s1.76-18.72,5.29-26.82c3.53-8.1,8.51-15.19,14.94-21.25,6.43-6.06,13.95-10.77,22.55-14.11,8.6-3.34,18.04-5.01,28.31-5.01s19.71,1.64,28.31,4.92c8.6,3.28,16.12,7.95,22.55,14.01,6.43,6.06,11.42,13.18,14.94,21.35,3.53,8.17,5.29,17.14,5.29,26.92s-1.76,18.59-5.29,26.82c-3.53,8.23-8.51,15.38-14.94,21.44-6.44,6.06-13.95,10.74-22.55,14.01-8.6,3.28-17.98,4.92-28.12,4.92M204.81,138.82c5.82,0,11.17-1.02,16.06-3.06,4.89-2.04,9.19-4.95,12.9-8.72,3.71-3.77,6.59-8.17,8.63-13.18,2.04-5.01,3.06-10.61,3.06-16.8s-1.02-11.79-3.06-16.8c-2.04-5.01-4.92-9.4-8.63-13.18-3.71-3.77-8.01-6.68-12.9-8.72-4.89-2.04-10.24-3.06-16.06-3.06s-11.2,1.02-16.15,3.06c-4.95,2.04-9.25,4.95-12.9,8.72-3.65,3.78-6.5,8.17-8.54,13.18-2.04,5.01-3.06,10.61-3.06,16.8s1.02,11.79,3.06,16.8c2.04,5.01,4.89,9.41,8.54,13.18,3.65,3.78,7.95,6.68,12.9,8.72,4.95,2.04,10.33,3.06,16.15,3.06" fill="#b01e27"/>
  <rect x="298.55" y="32.08" width="30.26" height="129.94" fill="#b01e27"/>
  <polygon points="583.51 162.02 583.51 32.08 613.76 32.08 613.76 137.52 678.55 137.52 678.55 162.02 583.51 162.02" fill="#d42b2b"/>
  <path d="M756.51,164.25c-10.27,0-19.74-1.67-28.4-5.01-8.66-3.34-16.21-8.04-22.65-14.11-6.44-6.06-11.42-13.18-14.94-21.35-3.53-8.17-5.29-17.08-5.29-26.73s1.76-18.72,5.29-26.82c3.53-8.1,8.51-15.19,14.94-21.25,6.43-6.06,13.95-10.77,22.55-14.11,8.6-3.34,18.04-5.01,28.31-5.01s19.71,1.64,28.31,4.92c8.6,3.28,16.12,7.95,22.55,14.01,6.43,6.06,11.42,13.18,14.94,21.35,3.53,8.17,5.29,17.14,5.29,26.92s-1.76,18.59-5.29,26.82c-3.53,8.23-8.51,15.38-14.94,21.44-6.44,6.06-13.95,10.74-22.55,14.01-8.6,3.28-17.98,4.92-28.12,4.92M756.33,138.82c5.82,0,11.17-1.02,16.06-3.06,4.89-2.04,9.19-4.95,12.9-8.72,3.71-3.77,6.59-8.17,8.63-13.18,2.04-5.01,3.06-10.61,3.06-16.8s-1.02-11.79-3.06-16.8c-2.04-5.01-4.92-9.4-8.63-13.18-3.71-3.77-8.01-6.68-12.9-8.72-4.89-2.04-10.24-3.06-16.06-3.06s-11.2,1.02-16.15,3.06c-4.95,2.04-9.25,4.95-12.9,8.72-3.65,3.78-6.5,8.17-8.54,13.18-2.04,5.01-3.06,10.61-3.06,16.8s1.02,11.79,3.06,16.8c2.04,5.01,4.89,9.41,8.54,13.18,3.65,3.78,7.95,6.68,12.9,8.72,4.95,2.04,10.33,3.06,16.15,3.06" fill="#d42b2b"/>
  <polygon points="940.84 32.08 900.72 124.89 861.21 32.08 828.54 32.08 884.78 162.02 914.48 162.02 970.73 32.08 940.84 32.08" fill="#d42b2b"/>
  <polygon points="1011.38 137.89 1011.38 107.82 1071.71 107.82 1071.71 84.24 1011.38 84.24 1011.38 56.21 1079.69 56.21 1079.69 32.08 981.49 32.08 981.49 162.02 1082.1 162.02 1082.1 137.89 1011.38 137.89" fill="#d42b2b"/>
</svg>