<?xml version="1.0" encoding="UTF-8"?>
<svg id="Livello_1" xmlns="http://www.w3.org/2000/svg" baseProfile="tiny" version="1.2" viewBox="0 0 3233.9 526.47">
  <!-- Generator: Adobe Illustrator 30.3.0, SVG Export Plug-In . SVG Version: 2.1.3 Build 182)  -->
  <g>
    <path d="M1248,146.04c4.89-8.81,81.42-96.07,156.89-52.21-35.38-47.52-91.97-78.3-155.77-78.3s-116.08,28.5-151.65,72.97c71.94-33.38,145.78,48.99,150.52,57.54Z" fill="#2b5ea7"/>
    <path d="M1248.29,446.63v.11c0,.06-.11.06-.29,0-.19.06-.29.07-.29,0v-.11c-7.15-3.07-85.61-51.74-145.97-116.98,57.42,91.26,147.39,181.25,147.39,181.25,0,2.5,93.1-91.59,150.34-185.28-61.07,67.26-143.83,117.86-151.18,121.01Z" fill="#2b5ea7"/>
    <path d="M1396.88,104.67c-19.34-11.24-40.58-13.85-63.11-7.76-43.71,11.82-77.59,51.92-79.83,55.87-1.21,2.13-3.48,3.47-5.92,3.47h-.03c-2.46-.01-4.73-1.32-5.92-3.47-1.89-3.29-20.05-24.44-46.5-40.87-15.58-9.68-36.51-19.09-58.96-19.09-10.41,0-21.15,2.02-31.84,6.98-10.88,5.05-21.28,12.9-30.94,23.35-26.68,28.88-35.08,62.43-24.97,99.74,8.4,30.99,29.32,64.7,62.17,100.21,54.77,59.2,122.89,102.58,137,110.64,14.7-8.29,86.78-53.71,141.98-114.51,31.19-34.36,50.82-67,58.34-97.01,8.98-35.88.34-68.33-25.71-96.44-8.17-8.82-16.83-15.92-25.75-21.1Z" fill="#b3c3e2"/>
  </g>
  <g>
    <path d="M306.99,150.24c-12.6-19.4-30.46-34.28-53.6-44.67-23.15-10.38-50.71-15.57-82.7-15.57H16v357.35h83.21v-98.53h71.47c31.99,0,59.55-5.27,82.7-15.83,23.14-10.54,41.01-25.44,53.6-44.67,12.59-19.22,18.89-42.28,18.89-69.17s-6.3-49.52-18.89-68.92ZM223.26,265.11c-12.94,10.9-31.99,16.34-57.18,16.34h-66.88v-124.05h66.88c25.18,0,44.24,5.36,57.18,16.08,12.93,10.72,19.4,25.96,19.4,45.69s-6.47,35.06-19.4,45.94Z" fill="#0f335e"/>
    <path d="M563.26,453.48c-28.25,0-54.29-4.59-78.11-13.78-23.83-9.19-44.59-22.12-62.28-38.8-17.7-16.67-31.4-36.25-41.1-58.71-9.7-22.46-14.55-46.97-14.55-73.51s4.85-51.47,14.55-73.77c9.7-22.29,23.4-41.77,41.1-58.45,17.69-16.67,38.37-29.61,62.03-38.8,23.65-9.19,49.6-13.78,77.85-13.78s54.19,4.51,77.85,13.53c23.65,9.02,44.33,21.87,62.03,38.54,17.69,16.68,31.4,36.25,41.1,58.71,9.7,22.46,14.55,47.14,14.55,74.02s-4.85,51.14-14.55,73.77c-9.7,22.64-23.4,42.29-41.1,58.96-17.7,16.68-38.38,29.53-62.03,38.54-23.66,9.01-49.44,13.53-77.34,13.53ZM562.75,383.54c15.99,0,30.71-2.81,44.16-8.42,13.44-5.62,25.27-13.61,35.48-23.99,10.21-10.38,18.12-22.46,23.74-36.25,5.62-13.78,8.42-29.18,8.42-46.2s-2.81-32.42-8.42-46.2c-5.62-13.78-13.53-25.86-23.74-36.25-10.21-10.38-22.04-18.38-35.48-23.99-13.45-5.62-28.17-8.42-44.16-8.42s-30.81,2.81-44.41,8.42c-13.62,5.62-25.45,13.62-35.48,23.99-10.04,10.39-17.87,22.46-23.48,36.25-5.62,13.78-8.42,29.19-8.42,46.2s2.81,32.42,8.42,46.2c5.62,13.78,13.44,25.87,23.48,36.25,10.04,10.38,21.86,18.38,35.48,23.99,13.61,5.62,28.41,8.42,44.41,8.42Z" fill="#0f335e"/>
    <path d="M820.55,447.36V90h83.21v357.35h-83.21Z" fill="#0f335e"/>
  </g>
  <g>
    <polygon points="1865.59 90 1755.27 345.24 1646.59 90 1556.74 90 1711.42 447.36 1793.1 447.36 1947.79 90 1865.59 90" fill="#2b5ea7"/>
    <path d="M2146.88,453.48c-28.25,0-54.29-4.59-78.11-13.78-23.83-9.19-44.59-22.12-62.28-38.8-17.7-16.67-31.4-36.25-41.1-58.71-9.7-22.46-14.55-46.97-14.55-73.51s4.85-51.47,14.55-73.77c9.7-22.29,23.4-41.77,41.1-58.45,17.69-16.67,38.37-29.61,62.03-38.8,23.65-9.19,49.6-13.78,77.85-13.78s54.19,4.51,77.85,13.53c23.65,9.02,44.33,21.87,62.03,38.54,17.69,16.68,31.4,36.25,41.1,58.71,9.7,22.46,14.55,47.14,14.55,74.02s-4.85,51.14-14.55,73.77c-9.7,22.64-23.4,42.29-41.1,58.96-17.7,16.68-38.38,29.53-62.03,38.54-23.66,9.01-49.44,13.53-77.34,13.53ZM2146.37,383.54c15.99,0,30.71-2.81,44.16-8.42,13.44-5.62,25.27-13.61,35.48-23.99,10.21-10.38,18.12-22.46,23.74-36.25,5.62-13.78,8.42-29.18,8.42-46.2s-2.81-32.42-8.42-46.2c-5.62-13.78-13.53-25.86-23.74-36.25-10.21-10.38-22.04-18.38-35.48-23.99-13.45-5.62-28.17-8.42-44.16-8.42s-30.81,2.81-44.41,8.42c-13.62,5.62-25.45,13.62-35.48,23.99-10.04,10.39-17.87,22.46-23.48,36.25s-8.42,29.19-8.42,46.2,2.81,32.42,8.42,46.2c5.62,13.78,13.44,25.87,23.48,36.25,10.03,10.38,21.86,18.38,35.48,23.99,13.61,5.62,28.41,8.42,44.41,8.42Z" fill="#2b5ea7"/>
    <path d="M2404.17,447.36V90h83.21v357.35h-83.21Z" fill="#2b5ea7"/>
    <path d="M2742.62,453.48c-27.57,0-53.18-4.51-76.83-13.53-23.66-9.01-44.16-21.86-61.52-38.54-17.36-16.67-30.89-36.25-40.58-58.71s-14.55-47.13-14.55-74.02,4.85-51.56,14.55-74.02c9.7-22.46,23.31-42.03,40.84-58.71,17.53-16.67,38.11-29.52,61.77-38.54,23.65-9.01,49.26-13.53,76.83-13.53,30.96,0,59.04,5.36,84.23,16.08,25.18,10.72,46.28,26.47,63.3,47.22l-53.6,49.01c-11.92-13.95-25.45-24.5-40.58-31.65-15.15-7.15-31.57-10.72-49.26-10.72-16.68,0-31.99,2.81-45.95,8.42-13.96,5.62-26.04,13.53-36.25,23.74s-18.12,22.29-23.74,36.25c-5.62,13.96-8.42,29.44-8.42,46.46s2.81,32.5,8.42,46.46c5.62,13.96,13.53,26.04,23.74,36.25s22.29,18.12,36.25,23.74c13.95,5.62,29.27,8.42,45.95,8.42,17.69,0,34.12-3.65,49.26-10.98,15.14-7.31,28.67-17.95,40.58-31.91l53.6,49.01c-17.02,20.76-38.12,36.59-63.3,47.48-25.19,10.89-53.43,16.34-84.74,16.34Z" fill="#2b5ea7"/>
    <polygon points="3023.4 380.99 3023.4 298.29 3189.32 298.29 3189.32 233.46 3023.4 233.46 3023.4 156.37 3211.27 156.37 3211.27 90 2941.21 90 2941.21 447.36 3217.9 447.36 3217.9 380.99 3023.4 380.99" fill="#2b5ea7"/>
  </g>
</svg>