<?xml version="1.0" encoding="UTF-8"?>
<svg id="Livello_1" xmlns="http://www.w3.org/2000/svg" baseProfile="tiny" version="1.2" viewBox="0 0 512 512">
  <!-- Generator: Adobe Illustrator 30.3.0, SVG Export Plug-In . SVG Version: 2.1.3 Build 182)  -->
  <path d="M253.64,154.01c4.04-7.29,67.38-79.51,129.84-43.21-29.28-39.32-76.12-64.8-128.91-64.8s-96.07,23.58-125.5,60.39c59.54-27.63,120.65,40.55,124.57,47.62" fill="#d42b2b"/>
  <path d="M253.88,402.78v.09c0,.05-.09.05-.24,0-.15.05-.24.05-.24,0v-.09c-5.92-2.54-70.85-42.82-120.8-96.81,47.52,75.53,121.98,150,121.98,150,0,2.07,77.05-75.79,124.42-153.33-50.54,55.66-119.03,97.54-125.11,100.15" fill="#d42b2b"/>
  <path d="M368.73,295.58c56.29-62,65.32-114.52,26.82-156.08-6.57-7.1-13.53-12.8-20.67-16.94-22.54-13.1-47.89-11.52-75.33,4.7-21.51,12.72-37.17,30.63-39.23,34.06-1.35,2.44-3.91,3.93-6.7,3.93s-5.34-1.53-6.7-3.97c-3.75-6.17-42.11-48.26-84.5-48.26-8.45,0-17.04,1.67-25.57,5.62-8.69,4.03-17.01,10.32-24.76,18.7-39.38,42.62-29.1,96.92,30.56,161.4,43.61,47.13,97.75,82.12,111.01,89.9,13.77-7.98,71.08-44.6,115.07-93.06" fill="#eaa4a4"/>
</svg>